<svg width="52" height="48" viewBox="0 0 52 48" fill="none" xmlns="http://www.w3.org/2000/svg">
<path d="M22 6.98539V3.98618C22 2.33697 23.7909 1 26 1C28.2091 1 30 2.33697 30 3.98618V6.97237" fill="#00B6D4"/>
<path d="M3.5 32.0257C2.1193 32.0257 1 30.9091 1 29.5317V21.5512C1 20.1739 2.1193 19.0573 3.5 19.0573C4.8807 19.0573 6 20.1739 6 21.5512V29.5317C6 30.9091 4.8807 32.0257 3.5 32.0257Z" fill="#D0CFCE"/>
<path d="M48.5 32.0257C49.8807 32.0257 51 30.9091 51 29.5317V21.5512C51 20.1739 49.8807 19.0573 48.5 19.0573C47.1193 19.0573 46 20.1739 46 21.5512V29.5317C46 30.9091 47.1193 32.0257 48.5 32.0257Z" fill="#D0CFCE"/>
<path d="M37.4505 47H14.5495C9.8473 47 6 43.1621 6 38.4713V15.6261C6 10.9353 9.8473 7.09742 14.5495 7.09742H37.4505C42.1527 7.09742 46 10.9353 46 15.6261V38.4713C46 43.162 42.1527 47 37.4505 47Z" fill="#D0CFCE"/>
<path d="M25.4977 46.9992H38.7842C42.7529 46.9992 46 43.1613 46 38.4705V15.6253C46 10.9346 42.7529 7.09662 38.7842 7.09662H36.4316" fill="#9B9B9A"/>
<path d="M33.8346 22.7833C35.3997 22.7833 36.6684 21.5177 36.6684 19.9564C36.6684 18.3952 35.3997 17.1295 33.8346 17.1295C32.2695 17.1295 31.0008 18.3952 31.0008 19.9564C31.0008 21.5177 32.2695 22.7833 33.8346 22.7833Z" fill="white"/>
<path d="M34.7701 32.1664C33.8219 36.5676 30.438 39.5023 25.1656 38.3719C19.8945 37.2418 17.9859 33.1611 18.9318 28.7706C18.9318 28.7706 26.6205 32.8982 34.7701 32.1664Z" fill="white"/>
<path d="M34.7701 32.2425C33.8219 36.6545 30.438 39.5963 25.1656 38.4631C19.8945 37.3303 17.9859 33.2397 18.9318 28.8384C18.9318 28.8384 26.6205 32.9761 34.7701 32.2425Z" stroke="black" stroke-width="2" stroke-miterlimit="10" stroke-linecap="round" stroke-linejoin="round"/>
<path d="M22 7V3.99347C22 2.34024 23.7909 1 26 1C28.2091 1 30 2.34024 30 3.99347V6.98695" stroke="black" stroke-width="2" stroke-miterlimit="2" stroke-linecap="round" stroke-linejoin="round"/>
<path d="M37.4505 47H14.5495C9.8473 47 6 43.1527 6 38.4505V15.5495C6 10.8473 9.8473 7 14.5495 7H37.4505C42.1527 7 46 10.8473 46 15.5495V38.4505C46 43.1527 42.1527 47 37.4505 47Z" stroke="black" stroke-width="2" stroke-miterlimit="2" stroke-linecap="round" stroke-linejoin="round"/>
<path d="M23 20.2748C22.6991 19.5977 22.2084 19.0224 21.5871 18.6187C20.9659 18.2149 20.2409 18 19.5 18C18.7591 18 18.0341 18.2149 17.4129 18.6187C16.7916 19.0224 16.3009 19.5977 16 20.2748" stroke="black" stroke-width="2" stroke-miterlimit="10" stroke-linecap="round"/>
<path d="M33.8346 22.836C35.3997 22.836 36.6684 21.5673 36.6684 20.0022C36.6684 18.4371 35.3997 17.1684 33.8346 17.1684C32.2695 17.1684 31.0008 18.4371 31.0008 20.0022C31.0008 21.5673 32.2695 22.836 33.8346 22.836Z" stroke="black" stroke-width="2" stroke-miterlimit="2" stroke-linecap="round" stroke-linejoin="round"/>
<path d="M3.5 32C2.1193 32 1 30.8807 1 29.5V21.5C1 20.1193 2.1193 19 3.5 19C4.8807 19 6 20.1193 6 21.5V29.5C6 30.8807 4.8807 32 3.5 32Z" stroke="black" stroke-width="2" stroke-miterlimit="2" stroke-linecap="round" stroke-linejoin="round"/>
<path d="M48.5 32C49.8807 32 51 30.8807 51 29.5V21.5C51 20.1193 49.8807 19 48.5 19C47.1193 19 46 20.1193 46 21.5V29.5C46 30.8807 47.1193 32 48.5 32Z" stroke="black" stroke-width="2" stroke-miterlimit="2" stroke-linecap="round" stroke-linejoin="round"/>
</svg>
